<?xml version="1.0" encoding="UTF-8"?>
<svg xmlns="http://www.w3.org/2000/svg" xmlns:xlink="http://www.w3.org/1999/xlink" width="20px" height="20px" viewBox="0 0 20 20" version="1.1">
<g id="surface1">
<path style=" stroke:none;fill-rule:nonzero;fill:rgb(0%,0%,0%);fill-opacity:1;" d="M 16.609375 0.566406 C 16.175781 0.679688 15.945312 0.8125 15.5 1.226562 C 15.28125 1.425781 13.191406 3.421875 10.859375 5.664062 L 6.621094 9.734375 L 6.488281 10.167969 C 6.128906 11.347656 5.402344 13.945312 5.402344 14.042969 C 5.402344 14.261719 5.644531 14.484375 5.882812 14.484375 C 5.929688 14.484375 6.371094 14.382812 6.855469 14.25 C 9.566406 13.535156 10.1875 13.371094 10.285156 13.332031 C 10.335938 13.308594 12.464844 11.296875 15.003906 8.855469 C 19.28125 4.75 19.632812 4.402344 19.75 4.167969 C 20.070312 3.527344 20.074219 2.871094 19.753906 2.234375 C 19.644531 2.011719 19.523438 1.878906 19.042969 1.410156 C 18.574219 0.957031 18.410156 0.832031 18.195312 0.730469 C 17.675781 0.488281 17.144531 0.4375 16.609375 0.566406 Z M 17.628906 1.535156 C 17.828125 1.605469 17.9375 1.691406 18.339844 2.082031 C 18.886719 2.597656 19.003906 2.792969 19.003906 3.195312 C 19.003906 3.554688 18.871094 3.800781 18.492188 4.179688 C 18.300781 4.367188 18.128906 4.511719 18.105469 4.507812 C 18.0625 4.492188 15.800781 2.328125 15.800781 2.296875 C 15.800781 2.246094 16.46875 1.648438 16.601562 1.582031 C 16.929688 1.425781 17.28125 1.410156 17.628906 1.535156 Z M 13.769531 8.703125 L 10.136719 12.183594 L 8.96875 11.066406 L 7.796875 9.941406 L 11.425781 6.464844 L 15.058594 2.988281 L 16.230469 4.105469 L 17.402344 5.226562 Z M 9.105469 12.652344 C 9.046875 12.679688 6.621094 13.339844 6.613281 13.320312 C 6.605469 13.316406 7.265625 11.03125 7.304688 10.921875 C 7.316406 10.882812 7.628906 11.15625 8.238281 11.742188 C 8.890625 12.367188 9.144531 12.636719 9.105469 12.652344 Z M 9.105469 12.652344 "/>
<path style=" stroke:none;fill-rule:nonzero;fill:rgb(0%,0%,0%);fill-opacity:1;" d="M 2.21875 2.371094 C 1.347656 2.476562 0.644531 2.949219 0.257812 3.695312 C -0.0195312 4.238281 -0.00390625 3.816406 0.0078125 11.066406 L 0.0195312 17.609375 L 0.140625 17.9375 C 0.210938 18.113281 0.332031 18.367188 0.414062 18.484375 C 0.628906 18.789062 1.042969 19.136719 1.378906 19.296875 C 1.945312 19.5625 1.363281 19.546875 9.476562 19.546875 C 16.777344 19.546875 16.820312 19.546875 17.121094 19.464844 C 18 19.238281 18.699219 18.53125 18.894531 17.675781 C 18.953125 17.441406 18.964844 17.0625 18.964844 15.113281 C 18.964844 12.886719 18.957031 12.824219 18.882812 12.703125 C 18.726562 12.460938 18.421875 12.402344 18.179688 12.558594 C 17.957031 12.691406 17.957031 12.691406 17.957031 15.113281 C 17.957031 17.246094 17.953125 17.363281 17.878906 17.597656 C 17.734375 18.027344 17.433594 18.339844 16.964844 18.519531 L 16.738281 18.609375 L 9.679688 18.613281 C 5.320312 18.617188 2.519531 18.613281 2.34375 18.589844 C 1.796875 18.519531 1.347656 18.210938 1.128906 17.753906 L 1.019531 17.53125 L 1.019531 4.386719 L 1.136719 4.144531 C 1.28125 3.835938 1.621094 3.527344 1.945312 3.398438 L 2.179688 3.308594 L 4.636719 3.292969 C 7.304688 3.269531 7.203125 3.28125 7.335938 3.058594 C 7.464844 2.851562 7.390625 2.566406 7.167969 2.425781 C 7.0625 2.359375 6.945312 2.355469 4.757812 2.351562 C 3.496094 2.34375 2.355469 2.359375 2.21875 2.371094 Z M 2.21875 2.371094 "/>
</g>
</svg>
